<svg xmlns="http://www.w3.org/2000/svg" viewBox="0 0 120 120"><defs><clipPath id="a"><path class="clip" d="M101.807 123.37c10-.352 18.193 5.401 18.193 5.401V0H0v128.771s9.701-5.227 17.069-5.227 10.464 6.314 20.877 6.314c10.175 0 12.703-4.209 22.053-4.209s11.981 5.438 20.578 5.438 11.23-7.365 21.23-7.717z"><animate dur="1" begin="0" repeatCount="indefinite" attributeName="d" from="M101.807,123.37c10-0.352,18.193,5.401,18.193,5.401V0H0v128.771c0,0,9.701-5.227,17.069-5.227s10.464,6.314,20.877,6.314 c10.175,0,12.703-4.209,22.053-4.209s11.981,5.438,20.578,5.438S91.807,123.722,101.807,123.37z" to="M101.807,123.37c10-0.352,18.193,5.401,18.193,5.401V0H0v128.771c0,0,9.701-5.227,17.069-5.227s10.464,6.314,20.877,6.314 c10.175,0,12.703-4.209,22.053-4.209s11.981,5.438,20.578,5.438S91.807,123.722,101.807,123.37z" values="M101.807,123.37c10-0.352,18.193,5.401,18.193,5.401V0H0v128.771c0,0,9.701-5.227,17.069-5.227s10.464,6.314,20.877,6.314 c10.175,0,12.703-4.209,22.053-4.209s11.981,5.438,20.578,5.438S91.807,123.722,101.807,123.37z;M101.807,135.303c10-0.352,18.193-6.531,18.193-6.531V0H0v128.771c0,0,9.701,4.952,17.069,4.952s10.464-9.299,20.877-9.299 c10.175,0,12.703,9.299,22.053,9.299s11.981-9.123,20.578-9.123S91.807,135.654,101.807,135.303z ;M101.807,123.37c10-0.352,18.193,5.401,18.193,5.401V0H0v128.771c0,0,9.701-5.227,17.069-5.227s10.464,6.314,20.877,6.314 c10.175,0,12.703-4.209,22.053-4.209s11.981,5.438,20.578,5.438S91.807,123.722,101.807,123.37z"/></path></clipPath></defs><g clip-path="url(#a)"><path class="logo" d="M84.995 62.896h-5.788v3.061h5.788c1.037 0 1.68-.611 1.68-1.512 0-.863-.643-1.549-1.68-1.549zm1.216-7.485c0-.828-.68-1.368-1.43-1.368h-5.574v2.808h5.574a1.418 1.418 0 0 0 1.43-1.44zM60 0C26.863 0 0 26.863 0 60c0 33.138 26.863 60 60 60 33.138 0 60-26.862 60-60 0-33.137-26.862-60-60-60zM48.974 72.004h-7.217v-9.178h-8.54v9.178H26V47.996h7.217v8.495h8.54v-8.495h7.217v24.008zm20.12 0H52.836V47.996h7.218v17.672h9.04v6.336zm17.868 0H71.99V47.996h14.471c4.931 0 7.075 3.312 7.075 6.119 0 2.987-1.752 5.003-4.074 5.507 2.573.396 4.538 2.771 4.538 5.866 0 3.348-2.251 6.516-7.038 6.516z"/></g></svg>